<?xml version="1.0" encoding="UTF-8" standalone="no"?>
<svg
   xmlns:dc="http://purl.org/dc/elements/1.1/"
   xmlns:cc="http://creativecommons.org/ns#"
   xmlns:rdf="http://www.w3.org/1999/02/22-rdf-syntax-ns#"
   xmlns:svg="http://www.w3.org/2000/svg"
   xmlns="http://www.w3.org/2000/svg"
   xmlns:sodipodi="http://sodipodi.sourceforge.net/DTD/sodipodi-0.dtd"
   xmlns:inkscape="http://www.inkscape.org/namespaces/inkscape"
   id="svg8"
   version="1.1"
   viewBox="0 0 65.854286 67.579376"
   height="67.579376mm"
   width="65.854286mm"
   sodipodi:docname="heroclash-logo.svg"
   inkscape:version="0.92.4 (5da689c313, 2019-01-14)">
  <sodipodi:namedview
     pagecolor="#ffffff"
     bordercolor="#666666"
     borderopacity="1"
     objecttolerance="10"
     gridtolerance="10"
     guidetolerance="10"
     inkscape:pageopacity="0"
     inkscape:pageshadow="2"
     inkscape:window-width="1920"
     inkscape:window-height="1001"
     id="namedview10"
     showgrid="false"
     inkscape:zoom="2.3786088"
     inkscape:cx="73.019614"
     inkscape:cy="139.24194"
     inkscape:window-x="2391"
     inkscape:window-y="-9"
     inkscape:window-maximized="1"
     inkscape:current-layer="layer2" />
  <defs
     id="defs2" />
  <metadata
     id="metadata5">
    <rdf:RDF>
      <cc:Work
         rdf:about="">
        <dc:format>image/svg+xml</dc:format>
        <dc:type
           rdf:resource="http://purl.org/dc/dcmitype/StillImage" />
        <dc:title />
      </cc:Work>
    </rdf:RDF>
  </metadata>
  <g
     inkscape:groupmode="layer"
     id="layer2"
     inkscape:label="Hintergrund"
     style="display:inline"
     transform="translate(-34.241442,-125.59802)">
    <g
       id="g4725"
       transform="matrix(1.5384718,0,0,1.4528972,-18.780034,69.05673)">
      <g
         id="g68"
         style="display:inline;fill:#1a2e3c;fill-opacity:1"
         transform="matrix(0.10189633,0,0,0.10111661,32.430075,38.916129)">
        <path
           style="fill:#000000;fill-opacity:1"
           inkscape:connector-curvature="0"
           d="m 73.742,360.816 c 2.138,0 4.293,-0.683 6.115,-2.094 4.367,-3.381 5.166,-9.662 1.785,-14.029 C 56.026,311.61 42.487,271.95 42.487,230 42.487,126.605 126.605,42.487 230,42.487 c 24.334,0 48.004,4.589 70.352,13.641 5.118,2.073 10.948,-0.396 13.022,-5.515 2.073,-5.119 -0.396,-10.949 -5.515,-13.022 C 283.115,27.568 256.92,22.487 230,22.487 115.577,22.487 22.487,115.577 22.487,230 c 0,46.423 14.987,90.317 43.341,126.937 1.97,2.546 4.925,3.879 7.914,3.879 z"
           id="path62" />
        <path
           style="fill:#000000;fill-opacity:1"
           inkscape:connector-curvature="0"
           d="m 394.177,103.069 c -3.382,-4.368 -9.662,-5.167 -14.029,-1.786 -4.367,3.381 -5.167,9.662 -1.786,14.029 25.612,33.082 39.15,72.74 39.15,114.688 0,103.395 -84.118,187.513 -187.513,187.513 -24.332,0 -48,-4.589 -70.346,-13.639 -5.119,-2.072 -10.949,0.396 -13.022,5.515 -2.073,5.119 0.396,10.949 5.515,13.022 24.743,10.021 50.937,15.102 77.854,15.102 114.423,0 207.513,-93.09 207.513,-207.513 0,-46.42 -14.985,-90.312 -43.336,-126.931 z"
           id="path64" />
        <path
           style="fill:#000000;fill-opacity:1;stroke:none"
           inkscape:connector-curvature="0"
           d="M 358.098,226.912 C 356.76,222.791 352.92,220 348.587,220 H 275.833 L 422.58,15.837 c 2.865,-3.986 2.413,-9.461 -1.066,-12.924 -3.479,-3.462 -8.956,-3.888 -12.929,-1.004 l -303.046,220 c -3.507,2.545 -4.975,7.06 -3.637,11.181 1.338,4.121 5.178,6.912 9.511,6.912 h 72.754 L 37.42,444.164 c -2.865,3.986 -2.413,9.461 1.066,12.924 1.935,1.926 4.488,2.912 7.057,2.912 2.05,0 4.109,-0.628 5.872,-1.908 l 303.046,-220 c 3.507,-2.545 4.975,-7.059 3.637,-11.18 z M 89.868,405.463 211.79,235.837 c 2.189,-3.046 2.49,-7.061 0.778,-10.399 C 210.857,222.1 207.421,220 203.67,220 H 142.21 L 370.132,54.537 248.21,224.164 c -2.189,3.046 -2.49,7.061 -0.778,10.399 1.711,3.338 5.147,5.438 8.898,5.438 h 61.46 z"
           id="path66" />
      </g>
      <path
         transform="scale(0.26458333)"
         inkscape:connector-curvature="0"
         id="path4714"
         d="m 158.56721,299.73116 c 0.2008,-0.33402 10.61567,-14.65074 23.06066,-31.81494 15.78151,-21.76595 23.20796,-31.62868 23.36547,-32.5993 0.18425,-1.13537 -0.008,-1.65394 -1.0459,-2.81573 l -1.27173,-1.42406 -12.14013,-0.2102 -12.14014,-0.21021 41.81796,-31.12127 c 22.96981,-17.09432 44.79459,-31.71591 44.9022,-31.6083 0.1076,0.10761 -11.70492,17.18859 -24.25465,34.49748 -24.89277,34.33269 -24.68172,32.48756 -22.49477,35.0866 l 1.12008,1.33114 12.38697,0.11132 14.12604,-0.80944 -43.80366,31.69011 c -23.23686,16.81089 -45.61942,33.07819 -45.85866,33.16439 -0.27337,0.0985 0.26268,-0.95715 2.23026,-3.26759 z"
         style="fill:#f7a823;fill-opacity:1;stroke:none;stroke-width:0.42041382;stroke-opacity:1"
         sodipodi:nodetypes="cscccccscsscccscc" />
    </g>
  </g>
  <g
     id="layer1"
     style="display:inline;fill:#000000;fill-opacity:1;stroke:#000000;stroke-opacity:1"
     transform="matrix(0.99761698,0,0,0.99077482,-28.094024,-119.21836)">
    <g
       id="g126"
       transform="matrix(0.10189633,0,0,0.10111661,39.466947,132.80903)"
       style="fill:#000000;fill-opacity:1;stroke:#000000;stroke-opacity:1">
      <g
         id="g70"
         style="fill:#000000;fill-opacity:1;stroke:#000000;stroke-opacity:1" />
      <g
         id="g72"
         style="fill:#000000;fill-opacity:1;stroke:#000000;stroke-opacity:1" />
      <g
         id="g74"
         style="fill:#000000;fill-opacity:1;stroke:#000000;stroke-opacity:1" />
      <g
         id="g76"
         style="fill:#000000;fill-opacity:1;stroke:#000000;stroke-opacity:1" />
      <g
         id="g78"
         style="fill:#000000;fill-opacity:1;stroke:#000000;stroke-opacity:1" />
      <g
         id="g80"
         style="fill:#000000;fill-opacity:1;stroke:#000000;stroke-opacity:1" />
      <g
         id="g82"
         style="fill:#000000;fill-opacity:1;stroke:#000000;stroke-opacity:1" />
      <g
         id="g84"
         style="fill:#000000;fill-opacity:1;stroke:#000000;stroke-opacity:1" />
      <g
         id="g86"
         style="fill:#000000;fill-opacity:1;stroke:#000000;stroke-opacity:1" />
      <g
         id="g88"
         style="fill:#000000;fill-opacity:1;stroke:#000000;stroke-opacity:1" />
      <g
         id="g90"
         style="fill:#000000;fill-opacity:1;stroke:#000000;stroke-opacity:1" />
      <g
         id="g92"
         style="fill:#000000;fill-opacity:1;stroke:#000000;stroke-opacity:1" />
      <g
         id="g94"
         style="fill:#000000;fill-opacity:1;stroke:#000000;stroke-opacity:1" />
      <g
         id="g96"
         style="fill:#000000;fill-opacity:1;stroke:#000000;stroke-opacity:1" />
      <g
         id="g98"
         style="fill:#000000;fill-opacity:1;stroke:#000000;stroke-opacity:1" />
    </g>
    <g
       aria-label="HERO"
       style="font-style:normal;font-variant:normal;font-weight:normal;font-stretch:normal;font-size:5.64444447px;line-height:1.25;font-family:'Action Comics';-inkscape-font-specification:'Action Comics';letter-spacing:0px;word-spacing:0px;fill:#000000;fill-opacity:1;stroke:#000000;stroke-width:0.26458332;stroke-opacity:1"
       id="text3715" />
    <text
       id="text3719"
       y="152.67445"
       x="71.093697"
       style="font-style:normal;font-variant:normal;font-weight:normal;font-stretch:normal;font-size:10.58333302px;line-height:1.25;font-family:'Action Comics';-inkscape-font-specification:'Action Comics';letter-spacing:0px;word-spacing:0px;fill:#000000;fill-opacity:1;stroke:#000000;stroke-width:0.26458332;stroke-opacity:1"
       xml:space="preserve"><tspan
         style="font-style:normal;font-variant:normal;font-weight:normal;font-stretch:normal;font-family:'Action Comics';-inkscape-font-specification:'Action Comics';fill:#000000;fill-opacity:1;stroke:#000000;stroke-width:0.26458332;stroke-opacity:1"
         y="152.67445"
         x="71.093697"
         id="tspan3717" /></text>
  </g>
  <g
     id="g902"
     transform="translate(0,-2.3396923)">
    <g
       transform="translate(-1.0774755)"
       id="g857">
      <g
         id="g871">
        <path
           transform="matrix(0.99761698,0,0,0.99077483,-28.094024,-119.21836)"
           d="m 47.4168,138.67329 v 0.031 l 0.759643,0.75964 -0.403076,15.72514 h -0.738973 q -0.408244,0.0362 -0.878499,0.0775 -0.465088,0.0413 -0.966349,0.0827 -0.501262,0.0465 -1.018026,0.093 -0.511597,0.0465 -1.012858,0.0878 -0.496094,0.0465 -0.961182,0.0879 -0.465088,0.0413 -0.868164,0.0775 l -0.232544,-0.23255 -6.273518,-1.07487 -0.749309,-0.75447 -0.04651,-0.005 3.302124,-15.00684 5.245157,0.25322 -0.0052,0.031 0.0155,0.0103 q 0,-0.0207 0,-0.0362 0.0052,-0.0207 0.01033,-0.0465 z m -4.175456,0.863 -0.74414,6.196 -1.53479,-0.0207 0.795817,-6.1495 -3.849894,-0.18603 -3.007569,13.66325 4.929932,0.84749 0.609782,-4.45968 1.586466,-0.36173 -0.661458,5.07463 4.88859,-0.43409 h 0.05168 l 0.366902,-14.28336 z"
           style="font-style:normal;font-variant:normal;font-weight:normal;font-stretch:normal;font-size:10.58333302px;line-height:1.25;font-family:'Action Comics';-inkscape-font-specification:'Action Comics';letter-spacing:0px;word-spacing:0px;display:inline;fill:#000000;fill-opacity:1;stroke:#000000;stroke-width:0.26458332;stroke-opacity:1"
           id="path128"
           inkscape:connector-curvature="0" />
        <path
           transform="matrix(0.99761698,0,0,0.99077483,-28.094024,-119.21836)"
           d="m 60.596874,138.86449 v 0.031 l 0.759643,0.75964 v 4.63538 l -2.268595,0.42374 0.144694,0.1447 -1.023193,4.0721 q 0.351399,-0.0568 0.676961,-0.10852 0.325562,-0.0568 0.620117,-0.10852 v 0.031 l 0.759644,0.75964 v 5.31234 l -12.319661,0.8785 -0.759644,-0.76482 -0.03617,0.005 3.963582,-16.07137 z m -8.914184,0.72347 -3.591512,14.55725 10.691853,-0.76481 v -3.81889 l -5.234822,0.863 h -0.04134 l 0.273885,-1.52962 2.909383,-0.6718 0.862996,-3.43131 h -3.002401 l 0.180868,-0.90951 5.141805,-0.95601 v -3.3383 z"
           style="font-style:normal;font-variant:normal;font-weight:normal;font-stretch:normal;font-size:10.58333302px;line-height:1.25;font-family:'Action Comics';-inkscape-font-specification:'Action Comics';letter-spacing:0px;word-spacing:0px;display:inline;fill:#000000;fill-opacity:1;stroke:#000000;stroke-width:0.26458332;stroke-opacity:1"
           id="path130"
           inkscape:connector-curvature="0" />
        <path
           transform="matrix(0.99761698,0,0,0.99077483,-28.094024,-119.21836)"
           d="m 74.856984,138.77664 -0.0052,0.031 0.759644,0.75964 -1.772502,8.8005 H 72.97593 q 0.377238,0.80615 0.785482,1.67948 0.413411,0.86817 0.826823,1.73633 0.413411,0.87333 0.806152,1.71049 0.397908,0.83716 0.74414,1.57613 l -6.697265,1.08004 -0.764811,-0.76481 -0.02067,0.005 -0.449585,-1.43143 q -0.05684,0.40307 -0.113688,0.78548 -0.05684,0.3824 -0.103353,0.74414 -1.684651,0.27389 -2.966227,0.47542 -1.281575,0.20671 -2.222086,0.34107 -0.935344,0.13952 -1.560628,0.2067 -0.625285,0.0724 -0.997356,0.0724 l -0.759643,-0.75964 h -0.03617 l 4.345988,-17.09457 z m -6.216675,4.0411 -0.160197,1.87069 -0.625284,0.0568 0.304891,-2.01538 z m -4.283976,-3.36414 -3.979085,15.64763 q 0.04134,0 6.206339,-1.00253 l 0.744141,-5.24515 h 0.04134 l 1.793172,5.72574 5.162476,-0.83199 -3.234945,-6.86263 h 1.395264 l 1.488281,-7.38973 z"
           style="font-style:normal;font-variant:normal;font-weight:normal;font-stretch:normal;font-size:10.58333302px;line-height:1.25;font-family:'Action Comics';-inkscape-font-specification:'Action Comics';letter-spacing:0px;word-spacing:0px;display:inline;fill:#000000;fill-opacity:1;stroke:#000000;stroke-width:0.26458332;stroke-opacity:1"
           id="path132"
           inkscape:connector-curvature="0" />
        <path
           transform="matrix(0.99761698,0,0,0.99077483,-28.094024,-119.21836)"
           d="m 89.729461,138.68362 -0.0052,0.031 0.764811,0.75964 -1.684652,15.53911 -12.888102,1.00252 -0.759643,-0.76481 -0.03617,0.005 4.976441,-16.51579 z m -5.410522,4.89376 -1.18339,5.88078 -0.7028,0.1757 1.35909,-6.05648 z m -3.68453,-4.11861 -4.51652,14.9965 11.27063,-0.8785 1.53479,-14.16451 z"
           style="font-style:normal;font-variant:normal;font-weight:normal;font-stretch:normal;font-size:10.58333302px;line-height:1.25;font-family:'Action Comics';-inkscape-font-specification:'Action Comics';letter-spacing:0px;word-spacing:0px;display:inline;fill:#000000;fill-opacity:1;stroke:#000000;stroke-width:0.26458332;stroke-opacity:1"
           id="path134"
           inkscape:connector-curvature="0" />
        <path
           sodipodi:nodetypes="cccccccccscsccccccccccc"
           inkscape:connector-curvature="0"
           id="path4676"
           d="m 13.341881,32.531733 c 0.160919,-0.91022 0.534954,-4.016108 0.490892,-4.059858 -0.02722,-0.027 -0.254622,0.02539 -0.760849,0.139203 l -0.821836,0.21919 -0.221624,1.94691 c -0.166865,1.17563 -0.493483,2.339266 -0.493483,2.339266 0,0 -4.7550362,-0.650659 -4.8114062,-0.707309 -0.02537,-0.0255 2.9474899,-13.436714 3.0004019,-13.537204 0.0194,-0.0369 3.9797623,0.128697 3.7260583,0.341267 0.253704,-0.21257 -0.07011,1.361507 -0.275739,2.907177 -0.205625,1.54568 -0.40117,2.922569 -0.40352,3.028639 -0.0037,0.16865 -4.64e-4,-0.20455 0.792529,-0.02923 l 0.738603,0.04974 0.09652,-0.169565 c 0.03133,-0.197 0.269465,-1.559996 0.441301,-3.025966 0.288316,-2.45971 0.16332,-2.328597 0.204542,-2.94331 0.125245,-0.0334 1.272817,-0.06868 1.989958,-0.06949 l 1.433183,-0.04319 -0.09527,1.111745 c -7.92e-4,1.0305 -0.299682,11.554541 -0.481144,12.845323 0,0 -3.970445,0.651201 -4.340259,0.651201 -0.370929,-0.14246 -0.273735,-0.565211 -0.208862,-0.994548 z"
           style="fill:#80ccd8;fill-opacity:1;stroke:none;stroke-width:0.11058823;stroke-opacity:1" />
        <path
           sodipodi:nodetypes="csscscccccscccccccccscccc"
           inkscape:connector-curvature="0"
           id="path4678"
           d="m 20.017265,33.155965 c 0.08821,-0.29383 3.480536,-13.921673 3.480536,-13.984843 0,-0.0304 1.856676,0.0476 4.02284,4.17e-4 l 4.11606,-0.08966 -0.176646,1.653479 c -0.139756,1.308166 -0.02162,1.48646 -0.194195,1.53499 -0.106809,0.0301 -1.234085,0.311422 -2.505058,0.540322 -1.655298,0.29814 -2.189303,0.403913 -2.253652,0.525903 -0.04941,0.0937 -0.216421,0.441717 -0.25939,0.699327 l -0.133747,0.398858 h 1.452358 c 0.798795,0 1.453356,0.0372 1.454575,0.0827 0.0013,0.0455 -0.08803,0.73312 -0.283312,1.52812 l -0.276615,1.591767 -1.50118,0.286342 c -0.767216,0.16913 -1.360854,0.343251 -1.40127,0.379261 -0.0916,0.0816 -0.34021,1.452239 -0.273232,1.515509 0.03912,0.037 2.798427,-0.316542 4.537519,-0.631162 l 0.329068,-0.006 0.295766,-0.087 0.02781,1.768838 c 0.02038,1.2962 0.178389,1.882874 0.07343,1.883954 -0.07629,7.8e-4 -2.498408,-0.0062 -4.970252,0.17448 -0.579181,-0.06617 -5.648742,0.594288 -5.561409,0.23441 z"
           style="fill:#80ccd8;fill-opacity:1;stroke:none;stroke-width:0.11058823;stroke-opacity:1" />
        <path
           sodipodi:nodetypes="csscccsscccsccccccccccccccc"
           inkscape:connector-curvature="0"
           id="path4680"
           d="m 32.264968,34.138034 c 0.05407,-0.14575 3.799922,-14.892119 3.799922,-14.957289 0,-0.0198 2.322632,-0.13333 4.855507,-0.13333 2.532878,0 4.674775,-0.101843 4.646993,0.05489 0.166879,0.0038 -0.306924,1.746703 -0.682115,3.610603 l -0.807298,3.375006 h -0.760491 c -0.418267,0 -0.760487,0.0192 -0.760487,0.0428 0,0.0235 0.849264,1.527427 1.734309,3.392997 0.885044,1.86558 1.624442,3.482246 1.609123,3.490626 -0.131998,0.0723 -4.805543,0.695347 -4.85192,0.649287 -0.03345,-0.0332 -0.548511,-1.268212 -1.073459,-2.756827 -0.987768,-2.801049 -0.86446,-3.502363 -1.082841,-1.973833 -0.07622,0.53352 -0.356412,1.81055 -0.486689,2.71887 l -0.236863,1.6515 -2.549774,0.533229 c -1.402373,0.22444 -2.822546,0.424155 -3.019983,0.460795 -0.501864,0.05538 -0.355719,0.02058 -0.333934,-0.159324 z m 8.121966,-10.856786 c 0.05015,-0.56645 0.16355,-1.096393 0.13306,-1.126673 -0.03049,-0.0303 -0.218629,0.0068 -0.418077,-0.0027 l -0.198648,0.04288 -0.216821,0.697054 c -0.07495,0.45461 -0.0827,1.113824 -0.08734,1.299734 0,0 -0.103184,0.1189 0.364087,0.05695 l 0.304768,0.02093 z"
           style="fill:#80ccd8;fill-opacity:1;stroke:none;stroke-width:0.11058823;stroke-opacity:1" />
        <path
           sodipodi:nodetypes="csccccsccccccssscccc"
           inkscape:connector-curvature="0"
           id="path4682"
           d="m 48.138653,33.434705 c -0.149446,-0.0811 0.986077,-3.356942 2.117215,-7.260353 l 2.092364,-7.220474 4.113622,0.05183 3.978854,0.139043 -0.05894,0.30308 c -0.03242,0.16668 -0.28488,3.343353 -0.663,6.889293 -0.378121,3.54596 -0.595716,6.565349 -0.632522,6.604509 -0.05603,0.0596 -10.296933,0.784441 -10.923597,0.780681 -0.126135,-7.8e-4 -0.05885,-0.197443 -0.024,-0.287613 z m 6.45168,-4.391612 c 0.279859,-0.0522 0.213406,-0.01619 0.253078,-0.182071 0.107044,-0.44763 1.265496,-5.73607 1.265496,-5.82467 0,-0.0489 -0.102417,-0.144517 -0.346549,-0.144517 -0.244133,0 -0.346549,0.09612 -0.346549,0.128722 0,0.0325 -0.244361,1.204352 -0.577013,2.672052 -0.332651,1.46768 -0.666647,2.827253 -0.725215,3.089253 -0.08583,0.38396 -0.119382,0.437581 3.78e-4,0.391941 0.179022,-0.03238 0.333841,-0.114801 0.476374,-0.13071 z"
           style="fill:#80ccd8;fill-opacity:1;stroke:none;stroke-width:0.11058823;stroke-opacity:1" />
      </g>
    </g>
    <g
       id="g882">
      <text
         transform="matrix(0.99761698,0,0,0.99077483,-28.094024,-119.21836)"
         xml:space="preserve"
         style="font-style:normal;font-variant:normal;font-weight:normal;font-stretch:normal;font-size:10.58333302px;line-height:1.25;font-family:'Action Comics';-inkscape-font-specification:'Action Comics';letter-spacing:0px;word-spacing:0px;display:inline;fill:#000000;fill-opacity:1;stroke:#000000;stroke-width:0.26458332;stroke-opacity:1"
         x="28.809734"
         y="169.08032"
         id="text15"><tspan
           sodipodi:role="line"
           id="tspan13"
           x="28.809734"
           y="169.08032"
           style="fill:#000000;fill-opacity:1;stroke:#000000;stroke-width:0.26458332;stroke-opacity:1">CLASH</tspan></text>
      <path
         style="fill:#e4003a;fill-opacity:1;stroke:none;stroke-width:0.11058823;stroke-opacity:1"
         d="m 3.0787758,37.425881 c 0.08409,-0.27232 0.2390957,-0.07886 4.24386,-0.679902 2.287682,-0.27762 4.4010522,-0.482076 4.4079812,-0.478356 0.0069,0.004 -0.103427,1.054612 -0.197173,2.191142 l -0.15078,2.184392 -2.5752369,0.03933 -2.3589376,-0.09832 -0.2975947,3.203926 c 0,0 -0.505096,3.196203 -0.49434,3.210793 0.01074,0.0146 1.1253803,-0.383122 2.3567803,-0.739632 l 2.3175669,-0.707171 -10e-7,2.034223 -0.01966,2.211196 c -3.0350888,0.82145 -6.1714389,1.330534 -9.2258415,2.224551 0.6483984,-4.592682 1.0770441,-9.885194 1.9933763,-14.596172 z"
         id="path4690"
         inkscape:connector-curvature="0"
         sodipodi:nodetypes="ccccccccccccccc" />
      <path
         style="fill:#e4003a;fill-opacity:1;stroke:none;stroke-width:0.11058823;stroke-opacity:1"
         d="m 11.705152,51.681358 c 0.02431,-0.068 1.05642,-3.369522 2.403328,-7.251571 l 2.575411,-7.422826 c 1.662321,-0.115095 3.081426,-0.138682 4.616279,-0.144527 0,0 -0.952108,2.728881 -1.678469,5.660801 -0.726362,2.93193 -1.546173,5.34423 -1.533406,5.36069 0.01277,0.0165 1.381378,-0.291837 2.56069,-0.444597 1.179312,-0.15284 2.078925,-0.240524 2.120311,-0.268961 0,0 0.04917,0.891341 0.04917,1.799401 0,1.62326 0.192437,1.848546 -0.05304,1.899786 -0.137324,0.0287 -2.657871,0.268698 -5.312814,0.485318 -1.194171,0.135485 -4.272554,0.4393 -5.74746,0.326486 z"
         id="path4692"
         inkscape:connector-curvature="0"
         sodipodi:nodetypes="csccsccssccc" />
      <path
         style="fill:#e4003a;fill-opacity:1;stroke:none;stroke-width:0.11058823;stroke-opacity:1"
         d="m 30.554818,50.558965 c 0.119496,-1.077592 0.418762,-2.1883 0.389854,-2.23475 -0.02891,-0.0464 -0.42077,-0.0844 -0.870805,-0.0844 -0.684387,0 -0.827222,0.0316 -0.873134,0.19286 -0.03019,0.10608 -0.01939,0.91198 -0.213908,1.79089 -0.19452,0.87891 -0.333006,1.856938 -0.341738,1.867488 -0.03306,0.0399 -4.32691,-0.739889 -4.379659,-0.792279 -0.06505,-0.0646 3.969125,-14.175719 4.09087,-14.311829 0.0455,-0.0509 1.341222,-0.15989 2.675459,-0.24228 1.467747,-0.01493 2.837787,-0.22358 4.342383,-0.185324 l -0.167563,7.599723 -0.05633,7.516287 -1.997715,0.411884 c -0.945717,0.163324 -1.534253,0.316419 -2.817666,0.455199 z m 0.839922,-5.53473 c 0.0099,-0.005 -0.01448,-0.7079 0.115792,-1.79896 0.130274,-1.09106 0.237259,-1.95026 0.466394,-2.34192 v 0 c -0.436603,-0.119988 0,0 -0.766084,-0.078 0,0.0165 -0.333107,0.914349 -0.638274,2.233309 -0.305166,1.31895 -0.527038,2.362744 -0.527038,2.421494 0.620638,-0.171834 0.464518,-0.05515 1.34921,-0.435921 z"
         id="path4694"
         inkscape:connector-curvature="0"
         sodipodi:nodetypes="scscscccccccccscscccscc" />
      <path
         style="fill:#e4003a;fill-opacity:1;stroke:none;stroke-width:0.11058823;stroke-opacity:1"
         d="m 37.124561,50.235282 c 0.188159,-0.43946 0.642359,-1.708758 0.96127,-2.436128 l 0.619161,-1.243856 2.405703,0.0096 c 1.29069,-0.0164 2.123252,-0.0258 2.123252,-0.07142 0,-0.0667 -3.044409,-2.763138 -3.964267,-3.539728 0.14815,-0.608999 1.022448,-2.444766 1.27029,-3.214316 l 1.36399,-3.045293 5.689821,-6.91e-4 5.884484,-0.0146 -1.019615,2.143188 c -0.577172,1.1901 -1.010075,2.378137 -1.010075,2.399757 0,0.0216 -1.304584,0.112993 -2.712638,0.129143 l -2.407564,-0.07011 2.228469,2.154973 c 1.820025,1.657029 2.388435,2.112104 2.351717,2.231824 -0.02955,0.0964 -0.678042,1.541909 -1.319192,2.913614 -0.636982,1.362789 -0.655539,1.745172 -1.051142,2.625204 l -5.876897,-0.01944 -5.960326,-0.04585 z"
         id="path4696"
         inkscape:connector-curvature="0"
         sodipodi:nodetypes="ccccsccccccsccccscccc" />
      <path
         style="fill:#f7003a;fill-opacity:1;stroke:none;stroke-width:0.11058823;stroke-opacity:1"
         d="m 59.735482,46.095615 c -0.026,-0.10657 -0.204368,0.146564 -0.909974,0.310764 -0.759118,0.17666 -0.767462,0.01801 -0.812147,0.216446 -0.02964,0.13164 -0.155135,1.00804 -0.278882,1.94757 -0.106986,0.889432 -0.146338,1.542533 -0.21109,2.290252 L 55.031364,50.571012 C 53.855449,50.368462 52.581866,50.0557 52.581866,50.0557 c 0,0 0.350261,-2.702437 1.339645,-6.58645 l 1.467946,-6.788992 2.031816,0.06791 c 0.941609,0.0221 2.062072,0.166035 1.915207,0.197939 -0.174391,1.746407 -0.811839,4.579047 -0.851865,6.058203 0.381814,-0.09771 0.998682,-0.02672 1.609133,-0.05562 0.347839,-2.106516 0.486742,-3.986607 0.832098,-6.096626 0.02093,-0.0181 0.691226,-0.0714 1.523554,-0.101604 l 1.791404,0.05643 c -0.05673,2.549764 -0.05783,4.531483 -0.140796,6.489203 -0.06408,3.15196 -0.143944,6.043072 -0.177476,6.472762 l -0.04706,0.998958 -1.911188,0.232871 c -0.803021,-0.02381 -2.429222,0.178409 -2.845296,0.07108 -0.08276,-1.765764 0.274195,-3.611957 0.61649,-4.976149 z"
         id="path4698"
         inkscape:connector-curvature="0"
         sodipodi:nodetypes="cccccccsccccccccccccccc" />
    </g>
  </g>
</svg>
