<svg xmlns="http://www.w3.org/2000/svg" viewBox="0 0 65.8543 67.5794">
  <defs/>
  <g fill="#000">
    <path d="M8.4314 53.008c.3352 0 .673-.1003.9586-.3076.6846-.4967.8099-1.4194.2799-2.061-4.0157-4.8603-6.1382-10.6868-6.1382-16.8498 0-15.19 13.1868-27.5479 29.3954-27.5479 3.8148 0 7.5254.6742 11.0288 2.004.8023.3046 1.7162-.0582 2.0413-.8102.325-.752-.062-1.6085-.8645-1.913-3.879-1.4726-7.9855-2.219-12.2056-2.219-17.9374 0-32.5307 13.676-32.5307 30.4861 0 6.8201 2.3495 13.2687 6.7944 18.6486.3088.374.772.5699 1.2406.5699zM58.6643 15.142c-.5302-.6418-1.5147-.7592-2.1993-.2625-.6846.4967-.81 1.4195-.28 2.061 4.0151 4.8602 6.1374 10.6864 6.1374 16.8491 0 15.19-13.1867 27.548-29.3954 27.548-3.8144 0-7.5247-.6742-11.0278-2.0038-.8025-.3044-1.7164.0582-2.0414.8102-.325.752.0621 1.6086.8646 1.9131 3.8788 1.4722 7.9851 2.2187 12.2047 2.2187 17.9375 0 32.5307-13.676 32.5307-30.4862 0-6.8196-2.349-13.268-6.7935-18.6477z"/>
    <path d="M53.0084 33.336c-.2098-.6055-.8117-1.0155-1.491-1.0155H40.112L63.117 2.3265c.4491-.5856.3783-1.39-.1671-1.8987-.5454-.5086-1.404-.5712-2.0268-.1475L13.416 32.6009c-.5497.374-.7798 1.0372-.57 1.6427.2097.6054.8116 1.0154 1.4909 1.0154h11.4053L2.7374 65.253c-.4491.5856-.3783 1.39.1671 1.8987.3034.283.7036.4278 1.1063.4278.3214 0 .6442-.0923.9205-.2803l47.507-32.3207c.5497-.3739.7798-1.037.57-1.6425zm-42.049 26.2312l19.113-24.92c.3432-.4476.3904-1.0374.122-1.5278-.2682-.4904-.8068-.799-1.3949-.799h-9.6347l35.73-24.3084-19.113 24.9202c-.3431.4475-.3903 1.0374-.122 1.5278.2683.4904.807.7989 1.395.7989h9.6347z"/>
  </g>
  <path fill="#f7a823" d="M11.524 58.679c.0817-.1283 4.321-5.6318 9.3869-12.23 6.4239-8.367 9.4469-12.1584 9.511-12.5316.075-.4364-.0033-.6357-.4258-1.0824l-.5176-.5474-4.9417-.0808-4.9417-.0808 17.0222-11.9634c9.35-6.5713 18.2338-12.192 18.2776-12.1506.0438.0414-4.7645 6.6075-9.873 13.2612-10.1327 13.198-10.0468 12.4887-9.1566 13.4878l.456.5117 5.0421.0428 5.7501-.3112-17.8304 12.182c-9.4587 6.4624-18.5696 12.7157-18.667 12.7489-.1113.0378.107-.368.9078-1.2561z"/>
  <g stroke="#000">
    <text x="71.0937" y="152.6745" stroke-width=".2646" font-family="Action Comics" font-size="10.5833" font-weight="400" letter-spacing="0" style="line-height:1.25;-inkscape-font-specification:'Action Comics'" transform="matrix(.99762 0 0 .99077 -28.094 -119.2184)" word-spacing="0"/>
  </g>
  <g>
    <path stroke="#000" stroke-width=".2646" d="M47.4168 138.6733v.031l.7596.7596-.403 15.7252h-.739q-.4082.0362-.8785.0775-.465.0413-.9664.0827-.5012.0465-1.018.093-.5116.0465-1.0128.0878-.4961.0465-.9612.0879-.4651.0413-.8682.0775l-.2325-.2326-6.2735-1.0749-.7494-.7544-.0465-.005 3.3022-15.0069 5.2451.2533-.0052.031.0155.0103v-.0362q.0052-.0207.0103-.0465zm-4.1755.863l-.7441 6.196-1.5348-.0207.7958-6.1495-3.8499-.186-3.0075 13.6632 4.9299.8475.6098-4.4597 1.5864-.3617-.6614 5.0746 4.8886-.434h.0517l.3669-14.2834z" font-family="Action Comics" font-size="10.5833" font-weight="400" letter-spacing="0" style="line-height:1.25;-inkscape-font-specification:'Action Comics'" transform="matrix(.99762 0 0 .99077 -29.1715 -121.558)" word-spacing="0"/>
    <path stroke="#000" stroke-width=".2646" d="M60.5969 138.8645v.031l.7596.7596v4.6354l-2.2686.4237.1447.1447-1.0232 4.0721q.3514-.0568.677-.1085.3255-.0568.6201-.1085v.031l.7596.7597v5.3123l-12.3196.8785-.7597-.7648-.0361.005 3.9636-16.0714zm-8.9142.7235l-3.5915 14.5572 10.6918-.7648v-3.8189l-5.2348.863h-.0413l.2739-1.5296 2.9093-.6718.863-3.4313h-3.0024l.1809-.9095 5.1418-.956v-3.3383z" font-family="Action Comics" font-size="10.5833" font-weight="400" letter-spacing="0" style="line-height:1.25;-inkscape-font-specification:'Action Comics'" transform="matrix(.99762 0 0 .99077 -29.1715 -121.558)" word-spacing="0"/>
    <path stroke="#000" stroke-width=".2646" d="M74.857 138.7766l-.0052.031.7596.7597-1.7725 8.8005h-.863q.3773.8061.7855 1.6795l.8268 1.7363q.4134.8733.8062 1.7105.3979.8371.7441 1.5761l-6.6972 1.08-.7648-.7648-.0207.005-.4496-1.4314q-.0568.403-.1137.7855-.0568.3824-.1033.7441-1.6847.274-2.9663.4754-1.2815.2068-2.222.3411-.9354.1395-1.5607.2067-.6253.0724-.9973.0724l-.7597-.7596h-.0362l4.346-17.0946zm-6.2167 4.0411l-.1602 1.8707-.6253.0568.305-2.0154zm-4.284-3.3641l-3.979 15.6476q.0413 0 6.2063-1.0025l.7441-5.2452h.0414l1.7931 5.7258 5.1625-.832-3.235-6.8626h1.3953l1.4883-7.3898z" font-family="Action Comics" font-size="10.5833" font-weight="400" letter-spacing="0" style="line-height:1.25;-inkscape-font-specification:'Action Comics'" transform="matrix(.99762 0 0 .99077 -29.1715 -121.558)" word-spacing="0"/>
    <path stroke="#000" stroke-width=".2646" d="M89.7295 138.6836l-.0052.031.7648.7597-1.6847 15.539-12.888 1.0026-.7597-.7648-.0362.005 4.9764-16.5158zm-5.4106 4.8938l-1.1834 5.8808-.7028.1757 1.3591-6.0565zm-3.6845-4.1186l-4.5165 14.9965 11.2706-.8785 1.5348-14.1645z" font-family="Action Comics" font-size="10.5833" font-weight="400" letter-spacing="0" style="line-height:1.25;-inkscape-font-specification:'Action Comics'" transform="matrix(.99762 0 0 .99077 -29.1715 -121.558)" word-spacing="0"/>
    <path fill="#80ccd8" d="M12.2644 30.192c.161-.9102.535-4.016.4909-4.0598-.0272-.027-.2546.0254-.7609.1392l-.8218.2192-.2216 1.9469c-.1669 1.1756-.4935 2.3393-.4935 2.3393s-4.755-.6507-4.8114-.7074c-.0254-.0255 2.9475-13.4367 3.0004-13.5372.0194-.0369 3.9798.1287 3.726.3413.2538-.2126-.07 1.3615-.2757 2.9072-.2056 1.5457-.4011 2.9226-.4035 3.0286-.0037.1687-.0005-.2045.7925-.0292l.7386.0497.0966-.1695c.0313-.197.2694-1.56.4413-3.026.2883-2.4597.1633-2.3286.2045-2.9433.1252-.0334 1.2728-.0687 1.99-.0695l1.4331-.0432-.0952 1.1118c-.0008 1.0305-.2997 11.5545-.4812 12.8453 0 0-3.9704.6512-4.3402.6512-.371-.1425-.2738-.5652-.2089-.9946zM18.9398 30.8163c.0882-.2939 3.4805-13.9217 3.4805-13.9849 0-.0304 1.8567.0476 4.0229.0004l4.116-.0896-.1766 1.6535c-.1398 1.3081-.0216 1.4864-.1942 1.535-.1068.03-1.2341.3114-2.505.5403-1.6554.2981-2.1894.4039-2.2537.5259-.0494.0937-.2164.4417-.2594.6993l-.1338.3989h1.4524c.7988 0 1.4534.0372 1.4546.0827.0013.0455-.088.733-.2833 1.528l-.2767 1.5919-1.5011.2863c-.7673.1691-1.3609.3432-1.4013.3793-.0916.0816-.3402 1.4522-.2732 1.5155.039.037 2.7984-.3166 4.5375-.6312l.329-.006.2958-.087.0278 1.7688c.0204 1.2962.1784 1.883.0735 1.884-.0763.0008-2.4985-.0062-4.9703.1745-.5792-.0662-5.6487.5943-5.5614.2344zM31.1875 31.7983c.054-.1457 3.8-14.892 3.8-14.9572 0-.0198 2.3225-.1334 4.8554-.1334 2.5329 0 4.6748-.1018 4.647.055.1669.0037-.307 1.7466-.6821 3.6105l-.8073 3.375H42.24c-.4183 0-.7605.0192-.7605.0428 0 .0235.8493 1.5274 1.7343 3.393.885 1.8656 1.6245 3.4823 1.6092 3.4906-.132.0723-4.8056.6954-4.852.6493-.0334-.0332-.5485-1.2682-1.0734-2.7568-.9878-2.801-.8645-3.5024-1.0829-1.9738-.0762.5335-.3564 1.8105-.4867 2.7188l-.2368 1.6515-2.5498.5333c-1.4024.2244-2.8225.4241-3.02.4608-.5018.0553-.3557.0205-.334-.1594zm8.122-10.8567c.0501-.5665.1635-1.0964.133-1.1267-.0305-.0303-.2186.0068-.418-.0027l-.1987.0429-.2168.697c-.075.4546-.0827 1.1138-.0874 1.2998 0 0-.1032.1189.3641.0569l.3048.021zM47.0612 31.095c-.1495-.081.986-3.357 2.1172-7.2603l2.0924-7.2205 4.1136.0518 3.9788.139-.059.3031c-.0323.1667-.2848 3.3434-.663 6.8893-.378 3.546-.5956 6.5654-.6324 6.6045-.056.0596-10.297.7845-10.9236.7807-.1262-.0008-.0589-.1974-.024-.2876zm6.4517-4.3916c.2798-.0522.2134-.0162.253-.182.107-.4477 1.2655-5.7361 1.2655-5.8247 0-.049-.1024-.1446-.3465-.1446-.2442 0-.3466.0962-.3466.1288 0 .0325-.2443 1.2043-.577 2.672-.3326 1.4677-.6666 2.8273-.7252 3.0893-.0858.384-.1194.4376.0004.392.179-.0325.3338-.1149.4764-.1308z"/>
    <g>
      <text x="28.8097" y="169.0803" stroke="#000" stroke-width=".2646" font-family="Action Comics" font-size="10.5833" font-weight="400" letter-spacing="0" style="line-height:1.25;-inkscape-font-specification:'Action Comics'" transform="matrix(.99762 0 0 .99077 -28.094 -121.558)" word-spacing="0">
        <tspan x="28.8097" y="169.0803">CLASH</tspan>
      </text>
      <path fill="#e4003a" d="M3.0788 35.0862c.084-.2723.239-.0789 4.2438-.68 2.2877-.2775 4.401-.482 4.408-.4783.007.004-.1034 1.0546-.1972 2.1912l-.1507 2.1844-2.5753.0393-2.359-.0983-.2975 3.2039s-.5051 3.1962-.4943 3.2108c.0107.0146 1.1253-.3831 2.3567-.7396l2.3176-.7072v2.0342l-.0197 2.2112c-3.035.8215-6.1714 1.3305-9.2258 2.2246.6484-4.5927 1.077-9.8852 1.9934-14.5962zM11.7052 49.3417c.0243-.068 1.0564-3.3696 2.4033-7.2516l2.5754-7.4228c1.6623-.1151 3.0814-.1387 4.6163-.1446 0 0-.9521 2.729-1.6785 5.6608-.7264 2.932-1.5462 5.3443-1.5334 5.3607.0128.0165 1.3814-.2918 2.5607-.4446 1.1793-.1528 2.079-.2405 2.1203-.269 0 0 .0492.8914.0492 1.7995 0 1.6232.1924 1.8485-.053 1.8998-.1374.0287-2.658.2687-5.3129.4853-1.1942.1355-4.2725.4393-5.7474.3265zM30.5548 48.2193c.1195-1.0776.4188-2.1883.3899-2.2348-.029-.0464-.4208-.0844-.8708-.0844-.6844 0-.8273.0316-.8732.1929-.0302.106-.0194.912-.2139 1.7909-.1945.8789-.333 1.857-.3417 1.8675-.033.0399-4.327-.74-4.3797-.7923-.065-.0646 3.9692-14.1757 4.0909-14.3118.0455-.051 1.3412-.16 2.6755-.2423 1.4677-.015 2.8377-.2236 4.3423-.1854l-.1675 7.5998-.0564 7.5163-1.9977.4118c-.9457.1634-1.5342.3165-2.8176.4552zm.84-5.5348c.0098-.005-.0145-.7079.1157-1.799.1303-1.091.2373-1.9502.4664-2.3418-.4366-.12 0 0-.766-.078 0 .0165-.3332.9143-.6383 2.2333-.3052 1.319-.527 2.3627-.527 2.4215.6206-.1719.4644-.0552 1.3491-.436zM37.1246 47.8956c.1881-.4395.6423-1.7088.9612-2.4361l.6192-1.2439 2.4057.0096c1.2907-.0164 2.1232-.0258 2.1232-.0714 0-.0667-3.0444-2.7632-3.9642-3.5397.1481-.609 1.0224-2.4448 1.2703-3.2144l1.364-3.0453 5.6898-.0006 5.8845-.0146-1.0196 2.1431c-.5772 1.1901-1.0101 2.3782-1.0101 2.3998 0 .0216-1.3046.113-2.7127.1291l-2.4075-.07 2.2284 2.155c1.82 1.657 2.3885 2.112 2.3518 2.2317-.0296.0964-.678 1.542-1.3192 2.9136-.637 1.3628-.6556 1.7452-1.0512 2.6253l-5.8769-.0195-5.9603-.0458z"/>
      <path fill="#f7003a" d="M59.7355 43.756c-.026-.1066-.2044.1465-.91.3107-.7591.1766-.7675.018-.8121.2164-.0297.1317-.1552 1.008-.279 1.9476-.107.8894-.1463 1.5425-.211 2.2903l-2.492-.2897c-1.176-.2025-2.4495-.5153-2.4495-.5153s.3502-2.7024 1.3396-6.5864l1.468-6.789 2.0318.0679c.9416.022 2.062.166 1.9152.198-.1744 1.7463-.8119 4.579-.8519 6.0581.3818-.0977.9987-.0267 1.6091-.0556.3479-2.1065.4868-3.9866.8321-6.0966.021-.0181.6913-.0714 1.5236-.1016l1.7914.0564c-.0567 2.5498-.0578 4.5315-.1408 6.4892-.064 3.152-.144 6.043-.1775 6.4728l-.047.999-1.9112.2328c-.803-.0238-2.4292.1784-2.8453.071-.0828-1.7657.2742-3.6119.6165-4.976z"/>
    </g>
  </g>
</svg>
