<svg xmlns="http://www.w3.org/2000/svg" viewBox="0 0 156.9172 34.5444">
  <defs/>
  <g fill="#000">
    <path d="M61.6884 27.096a.8078.8078 0 00.4812-.1572c.3436-.254.4064-.7256.1404-1.0536-2.0155-2.4844-3.0808-5.4627-3.0808-8.613 0-7.7647 6.6186-14.0817 14.7541-14.0817 1.9147 0 3.7771.3447 5.5356 1.0244.4027.1557.8614-.0297 1.0246-.4141.163-.3844-.0312-.8222-.434-.978-1.9469-.7526-4.008-1.1342-6.1262-1.1342-9.0032 0-16.3278 6.9908-16.3278 15.5836 0 3.4862 1.1792 6.7825 3.4102 9.5325.155.1912.3875.2913.6227.2913zM86.9013 7.74c-.266-.328-.7602-.388-1.1038-.134-.3436.2538-.4066.7255-.1405 1.0535 2.0152 2.4843 3.0804 5.4625 3.0804 8.6127 0 7.7646-6.6187 14.0816-14.7542 14.0816-1.9145 0-3.7768-.3446-5.535-1.0243-.4028-.1556-.8615.0298-1.0246.4142-.1631.3844.0311.8222.4339.9779 1.9469.7525 4.0079 1.1341 6.1258 1.1341 9.0032 0 16.3279-6.9907 16.3279-15.5835 0-3.486-1.1791-6.7822-3.4099-9.5321z"/>
    <path d="M84.0625 17.0403c-.1053-.3095-.4074-.5191-.7483-.5191h-5.7246l11.5466-15.332c.2254-.2993.1898-.7105-.0839-.9705s-.7047-.292-1.0173-.0754L64.1903 16.6646c-.276.191-.3914.5301-.2862.8396.1053.3095.4075.519.7484.519h5.7245l-11.5465 15.332c-.2255.2993-.1899.7105.0838.9705.1523.1447.3532.2187.5553.2187a.8103.8103 0 00.462-.1433l23.8447-16.5213c.276-.191.3915-.53.2862-.8395zM62.9573 30.4489l9.5932-12.7384c.1722-.2287.196-.5303.0612-.781-.1346-.2506-.405-.4083-.7001-.4083h-4.8359L85.0094 4.0955l-9.5932 12.7384c-.1723.2287-.196.5303-.0613.781.1347.2506.405.4083.7002.4083h4.8358z"/>
  </g>
  <path fill="#f7a823" d="M63.2406 29.9949c.041-.0657 2.1689-2.8789 4.7115-6.2517 3.2243-4.277 4.7416-6.215 4.7738-6.4057.0376-.223-.0017-.325-.2137-.5533l-.2598-.2798-2.4804-.0413-2.4803-.0413 8.5438-6.1153c4.693-3.359 9.152-6.2322 9.1739-6.211.022.0211-2.3914 3.3775-4.9554 6.7787-5.0859 6.7463-5.0427 6.3838-4.596 6.8945l.229.2616 2.5307.0218 2.886-.159-8.9494 6.227c-4.7475 3.3034-9.3205 6.5-9.3694 6.5168-.0558.0194.0537-.188.4557-.642z"/>
  <g stroke="#000">
    <g style="line-height:1.25;-inkscape-font-specification:'Action Comics'" stroke-width=".2646" aria-label="HERO" font-family="Action Comics" font-size="10.5833" font-weight="400" letter-spacing="0" word-spacing="0">
      <path style="-inkscape-font-specification:'Action Comics'" d="M47.4168 138.6733v.031l.7596.7596-.403 15.7252h-.739q-.4082.0362-.8785.0775-.465.0413-.9664.0827-.5012.0465-1.018.093-.5116.0465-1.0128.0878-.4961.0465-.9612.0879-.4651.0413-.8682.0775l-.2325-.2326-6.2735-1.0749-.7494-.7544-.0465-.005 3.3022-15.0069 5.2451.2533-.0052.031.0155.0103v-.0362q.0052-.0207.0103-.0465zm-4.1755.863l-.7441 6.196-1.5348-.0207.7958-6.1495-3.8499-.186-3.0075 13.6632 4.9299.8475.6098-4.4597 1.5864-.3617-.6614 5.0746 4.8886-.434h.0517l.3669-14.2834zM74.857 138.7766l-.0052.031.7596.7597-1.7725 8.8005h-.863q.3773.8061.7855 1.6795l.8268 1.7363q.4134.8733.8062 1.7105.3979.8371.7441 1.5761l-6.6972 1.08-.7648-.7648-.0207.005-.4496-1.4314q-.0568.403-.1137.7855-.0568.3824-.1033.7441-1.6847.274-2.9663.4754-1.2815.2068-2.222.3411-.9354.1395-1.5607.2067-.6253.0724-.9973.0724l-.7597-.7596h-.0362l4.346-17.0946zm-6.2167 4.0411l-.1602 1.8707-.6253.0568.305-2.0154zm-4.284-3.3641l-3.979 15.6476q.0413 0 6.2063-1.0025l.7441-5.2452h.0414l1.7931 5.7258 5.1625-.832-3.235-6.8626h1.3953l1.4883-7.3898z" transform="matrix(.99762 0 0 .99077 -33.7858 -128.9665)"/>
    </g>
    <text style="line-height:1.25;-inkscape-font-specification:'Action Comics'" x="71.0937" y="152.6745" stroke-width=".2646" font-family="Action Comics" font-size="10.5833" font-weight="400" letter-spacing="0" transform="matrix(.99762 0 0 .99077 -33.7858 -128.9665)" word-spacing="0"/>
  </g>
  <path fill="#80ccd8" d="M14.3255 23.4078c.0882-.2938 3.4805-13.9217 3.4805-13.9848 0-.0304 1.8567.0476 4.0229.0004l4.116-.0897-.1766 1.6535c-.1398 1.3082-.0216 1.4865-.1942 1.535-.1068.03-1.2341.3114-2.505.5403-1.6554.2982-2.1894.404-2.2537.526-.0494.0936-.2165.4416-.2594.6992l-.1338.3989h1.4524c.7988 0 1.4533.0372 1.4546.0827.0013.0455-.088.7331-.2833 1.5281l-.2767 1.5918-1.5011.2863c-.7673.1692-1.3609.3433-1.4013.3793-.0916.0816-.3402 1.4522-.2732 1.5155.039.037 2.7984-.3165 4.5375-.6312l.329-.006.2958-.087.0278 1.7689c.0204 1.2962.1784 1.8828.0735 1.884-.0763.0007-2.4985-.0063-4.9703.1744-.5792-.0662-5.6487.5943-5.5614.2344z"/>
  <path stroke="#000" stroke-width=".2646" d="M60.5969 138.8645v.031l.7596.7596v4.6354l-2.2686.4237.1447.1447-1.0232 4.0721q.3514-.0568.677-.1085.3255-.0568.6201-.1085v.031l.7596.7597v5.3123l-12.3196.8785-.7597-.7648-.0361.005 3.9636-16.0714zm-8.9142.7235l-3.5915 14.5572 10.6918-.7648v-3.8189l-5.2348.863h-.0413l.2739-1.5296 2.9093-.6718.863-3.4313h-3.0024l.1809-.9095 5.1418-.956v-3.3383zM89.7295 138.6836l-.0052.031.7648.7597-1.6847 15.539-12.888 1.0026-.7597-.7648-.0362.005 4.9764-16.5158zm-5.4106 4.8938l-1.1834 5.8808-.7028.1757 1.3591-6.0565zm-3.6845-4.1186l-4.5165 14.9965 11.2706-.8785 1.5348-14.1645z" font-family="Action Comics" font-size="10.5833" font-weight="400" transform="matrix(.99762 0 0 .99077 -33.7858 -128.9665)" style="line-height:1.25;-inkscape-font-specification:'Action Comics'" letter-spacing="0" word-spacing="0"/>
  <path fill="#80ccd8" d="M7.6501 22.7836c.161-.9102.535-4.0161.4909-4.0599-.0272-.027-.2546.0254-.7609.1392l-.8218.2192-.2216 1.947c-.1669 1.1755-.4935 2.3392-.4935 2.3392s-4.755-.6507-4.8114-.7073c-.0254-.0255 2.9475-13.4367 3.0004-13.5372.0194-.037 3.9798.1287 3.726.3412.2538-.2125-.07 1.3615-.2757 2.9072-.2056 1.5457-.4012 2.9226-.4035 3.0287-.0037.1686-.0005-.2046.7925-.0293l.7386.0498.0965-.1696c.0314-.197.2695-1.56.4413-3.026.2884-2.4597.1634-2.3286.2046-2.9433.1252-.0334 1.2728-.0687 1.99-.0695l1.4331-.0432-.0952 1.1118c-.0008 1.0305-.2997 11.5545-.4812 12.8453 0 0-3.9704.6512-4.3402.6512-.371-.1424-.2738-.5652-.2089-.9945zM26.5732 24.3899c.054-.1458 3.8-14.8921 3.8-14.9573 0-.0198 2.3225-.1333 4.8554-.1333 2.5329 0 4.6748-.1019 4.647.0548.1669.0038-.307 1.7467-.6821 3.6106l-.8073 3.375h-.7605c-.4183 0-.7605.0193-.7605.0429 0 .0235.8493 1.5274 1.7343 3.393.885 1.8655 1.6245 3.4822 1.6092 3.4906-.132.0723-4.8056.6953-4.852.6493-.0334-.0332-.5485-1.2682-1.0734-2.7569-.9878-2.801-.8645-3.5023-1.0829-1.9738-.0762.5335-.3564 1.8106-.4867 2.7189l-.2368 1.6515-2.5498.5332c-1.4024.2244-2.8225.4242-3.02.4608-.5018.0554-.3557.0206-.334-.1593zm8.122-10.8568c.0501-.5665.1635-1.0964.133-1.1267-.0305-.0303-.2186.0068-.418-.0027l-.1987.0429-.2168.697c-.075.4547-.0827 1.1139-.0874 1.2998 0 0-.1032.1189.3641.057l.3048.0209zM42.4469 23.6865c-.1495-.081.986-3.3569 2.1172-7.2603l2.0924-7.2205 4.1136.0518 3.9788.139-.059.3032c-.0323.1667-.2848 3.3433-.663 6.8893-.378 3.546-.5956 6.5653-.6324 6.6045-.056.0596-10.297.7844-10.9236.7807-.1262-.0008-.0589-.1975-.024-.2877zm6.4517-4.3916c.2798-.0522.2134-.0162.253-.182.107-.4477 1.2655-5.7361 1.2655-5.8247 0-.049-.1024-.1445-.3465-.1445-.2442 0-.3466.0961-.3466.1287 0 .0325-.2443 1.2044-.577 2.672-.3326 1.4677-.6666 2.8273-.7252 3.0893-.0858.384-.1194.4376.0004.392.179-.0324.3338-.1149.4764-.1308z"/>
  <g>
    <text x="28.8097" y="169.0803" style="line-height:1.25;-inkscape-font-specification:'Action Comics'" stroke="#000" stroke-width=".2646" font-family="Action Comics" font-size="10.5833" font-weight="400" letter-spacing="0" transform="matrix(.99762 0 0 .99077 62.9689 -146.6976)" word-spacing="0">
      <tspan x="28.8097" y="169.0803">CLASH</tspan>
    </text>
    <path fill="#e4003a" d="M94.1417 9.9466c.084-.2723.239-.0788 4.2438-.6799 2.2877-.2776 4.401-.482 4.408-.4783.007.004-.1034 1.0546-.1972 2.1911l-.1507 2.1844-2.5753.0393-2.359-.0983-.2975 3.204s-.5051 3.1961-.4943 3.2107c.0107.0146 1.1253-.3831 2.3567-.7396l2.3176-.7072v2.0342l-.0197 2.2112c-3.035.8215-6.1714 1.3306-9.2258 2.2246.6484-4.5927 1.077-9.8852 1.9934-14.5962zM102.768 24.2021c.0244-.068 1.0565-3.3695 2.4034-7.2516l2.5754-7.4228c1.6623-.1151 3.0814-.1387 4.6163-.1445 0 0-.9521 2.7289-1.6785 5.6608-.7264 2.9319-1.5462 5.3442-1.5334 5.3607.0128.0165 1.3814-.2919 2.5607-.4446 1.1793-.1529 2.079-.2406 2.1203-.269 0 0 .0492.8913.0492 1.7994 0 1.6233.1924 1.8486-.053 1.8998-.1374.0287-2.658.2687-5.3129.4853-1.1942.1355-4.2725.4393-5.7474.3265zM121.6177 23.0797c.1195-1.0776.4188-2.1883.3899-2.2347-.029-.0464-.4208-.0844-.8708-.0844-.6844 0-.8273.0316-.8732.1928-.0302.106-.0194.912-.2139 1.7909-.1945.879-.333 1.857-.3417 1.8675-.033.0399-4.327-.7399-4.3797-.7923-.065-.0646 3.9692-14.1757 4.0909-14.3118.0455-.051 1.3412-.16 2.6755-.2423 1.4677-.015 2.8377-.2236 4.3423-.1853l-.1675 7.5997-.0563 7.5163-1.9978.4119c-.9457.1633-1.5342.3164-2.8176.4552zm.84-5.5347c.0098-.005-.0145-.708.1157-1.799.1303-1.091.2373-1.9502.4664-2.342-.4366-.1199 0 0-.766-.078 0 .0166-.3332.9144-.6383 2.2334-.3052 1.319-.527 2.3627-.527 2.4215.6206-.1718.4645-.0552 1.3491-.436zM128.1875 22.756c.1881-.4394.6423-1.7087.9612-2.4361l.6192-1.2439 2.4057.0096c1.2907-.0164 2.1233-.0258 2.1233-.0714 0-.0667-3.0445-2.7631-3.9643-3.5397.1481-.609 1.0224-2.4448 1.2703-3.2143l1.364-3.0453 5.6898-.0007 5.8845-.0146-1.0196 2.1432c-.5772 1.19-1.0101 2.3781-1.0101 2.3997 0 .0216-1.3046.113-2.7127.1292l-2.4075-.0701 2.2284 2.155c1.82 1.657 2.3885 2.112 2.3518 2.2318-.0296.0964-.678 1.5419-1.3192 2.9136-.637 1.3628-.6556 1.7451-1.0512 2.6252l-5.8769-.0195-5.9603-.0458z"/>
    <path fill="#f7003a" d="M150.7984 18.6164c-.026-.1066-.2044.1465-.91.3107-.7591.1767-.7674.018-.8121.2165-.0297.1316-.1552 1.008-.279 1.9475-.1069.8895-.1463 1.5426-.211 2.2903l-2.492-.2896c-1.176-.2026-2.4495-.5154-2.4495-.5154s.3502-2.7024 1.3396-6.5864l1.468-6.789 2.0318.068c.9416.022 2.062.166 1.9152.1978-.1744 1.7465-.8119 4.579-.8519 6.0582.3818-.0977.9987-.0267 1.6092-.0556.3478-2.1065.4867-3.9866.832-6.0966.021-.0181.6913-.0714 1.5236-.1016l1.7914.0564c-.0567 2.5498-.0578 4.5315-.1408 6.4892-.064 3.152-.144 6.0431-.1775 6.4728l-.047.999-1.9112.2328c-.803-.0238-2.4292.1784-2.8453.0711-.0828-1.7658.2742-3.612.6165-4.9761z"/>
  </g>
</svg>
